<?xml version="1.0" encoding="utf-8"?>
<!-- Generator: Adobe Illustrator 24.1.0, SVG Export Plug-In . SVG Version: 6.00 Build 0)  -->
<svg version="1.1" id="Calque_1" xmlns="http://www.w3.org/2000/svg" xmlns:xlink="http://www.w3.org/1999/xlink" x="0px" y="0px"
	 viewBox="0 0 512 512" style="enable-background:new 0 0 512 512;" xml:space="preserve">
<style type="text/css">
	.st0{fill:url(#SVGID_1_);}
	.st1{fill:url(#SVGID_2_);}
	.st2{fill:url(#SVGID_3_);}
	.st3{fill:url(#SVGID_4_);}
	.st4{fill:url(#SVGID_5_);}
	.st5{fill:url(#SVGID_6_);}
	.st6{fill:#E2868F;}
	.st7{fill:#D24150;}
	.st8{fill:#FFC476;}
	.st9{fill:#E8A750;}
	.st10{fill:#A10856;}
	.st11{fill:#840747;}
	.st12{fill:#B23474;}
	.st13{fill:url(#SVGID_7_);}
	.st14{fill:#FFBCAB;}
	.st15{fill:#FF9478;}
</style>
<g>
	<g>
		<g>
			
				<linearGradient id="SVGID_1_" gradientUnits="userSpaceOnUse" x1="115.6" y1="-3248.3713" x2="396.3968" y2="-3248.3713" gradientTransform="matrix(1 0 0 -1 0 -2972)">
				<stop  offset="0" style="stop-color:#FFF362"/>
				<stop  offset="6.095099e-02" style="stop-color:#F4DC6F"/>
				<stop  offset="0.131" style="stop-color:#EAC979"/>
				<stop  offset="0.2031" style="stop-color:#E5BE7F"/>
				<stop  offset="0.28" style="stop-color:#E3BA81"/>
				<stop  offset="0.67" style="stop-color:#CF938A"/>
				<stop  offset="0.89" style="stop-color:#C1728E"/>
				<stop  offset="1" style="stop-color:#AF3C8E"/>
			</linearGradient>
			<path class="st0" d="M115.6,262.7c0-2.8,0.5-5.5,1.6-8c1.1-2.5,2.5-4.6,4.4-6.5c1.9-1.9,4-3.3,6.5-4.4c2.5-1.1,5.1-1.6,8-1.6
				h31.4v13.7h-31.4c-1,0-1.8,0.2-2.7,0.5c-0.8,0.3-1.5,0.8-2.2,1.4c-0.6,0.6-1.1,1.3-1.4,2.2c-0.3,0.8-0.5,1.7-0.5,2.7
				s0.2,1.8,0.5,2.7c0.3,0.9,0.8,1.6,1.4,2.2c0.6,0.6,1.3,1.1,2.2,1.4c0.8,0.3,1.7,0.5,2.7,0.5h13.7c2.8,0,5.5,0.5,8,1.6
				c2.5,1.1,4.7,2.5,6.5,4.4c1.8,1.8,3.3,4,4.4,6.5c1.1,2.5,1.6,5.2,1.6,8s-0.5,5.5-1.6,8c-1.1,2.5-2.5,4.6-4.4,6.5
				c-1.8,1.8-4,3.3-6.5,4.4c-2.5,1.1-5.2,1.6-8,1.6h-30.3v-13.7h30.3c1,0,1.8-0.2,2.7-0.5c0.8-0.3,1.5-0.8,2.2-1.4
				c0.6-0.6,1.1-1.3,1.4-2.2c0.3-0.8,0.5-1.7,0.5-2.7s-0.2-1.8-0.5-2.7c-0.3-0.8-0.8-1.5-1.4-2.2c-0.6-0.6-1.3-1.1-2.2-1.4
				c-0.8-0.3-1.7-0.5-2.7-0.5h-13.7c-2.8,0-5.5-0.5-8-1.6c-2.5-1.1-4.6-2.5-6.5-4.4c-1.9-1.9-3.3-4-4.4-6.5
				C116.2,268.2,115.6,265.5,115.6,262.7z"/>
			
				<linearGradient id="SVGID_2_" gradientUnits="userSpaceOnUse" x1="115.6097" y1="-3246.8892" x2="396.4064" y2="-3246.8892" gradientTransform="matrix(1 0 0 -1 0 -2972)">
				<stop  offset="0" style="stop-color:#FFF362"/>
				<stop  offset="6.095099e-02" style="stop-color:#F4DC6F"/>
				<stop  offset="0.131" style="stop-color:#EAC979"/>
				<stop  offset="0.2031" style="stop-color:#E5BE7F"/>
				<stop  offset="0.28" style="stop-color:#E3BA81"/>
				<stop  offset="0.67" style="stop-color:#CF938A"/>
				<stop  offset="0.89" style="stop-color:#C1728E"/>
				<stop  offset="1" style="stop-color:#AF3C8E"/>
			</linearGradient>
			<path class="st1" d="M183.5,310.5h-13v-71.3h13v22.5c1.5-1.2,3.2-2,4.8-2.5c1.7-0.5,3.3-0.7,5-0.7c3.2,0,6.1,0.6,8.9,1.8
				c2.8,1.2,5.2,2.8,7.2,4.9c2.1,2.1,3.7,4.5,4.9,7.3c1.2,2.8,1.8,5.7,1.8,8.9v29.2H203v-29.2h0.1c0-1.3-0.3-2.6-0.8-3.8
				c-0.5-1.2-1.2-2.2-2.1-3.1c-0.9-0.9-1.9-1.6-3.1-2.1c-1.2-0.5-2.4-0.8-3.8-0.8c-1.4,0-2.6,0.3-3.8,0.8s-2.2,1.2-3.2,2.1
				c-0.9,0.9-1.6,1.9-2.1,3.1c-0.5,1.2-0.8,2.5-0.8,3.8L183.5,310.5L183.5,310.5L183.5,310.5z"/>
			
				<linearGradient id="SVGID_3_" gradientUnits="userSpaceOnUse" x1="115.6097" y1="-3256.5305" x2="396.4064" y2="-3256.5305" gradientTransform="matrix(1 0 0 -1 0 -2972)">
				<stop  offset="0" style="stop-color:#FFF362"/>
				<stop  offset="6.095099e-02" style="stop-color:#F4DC6F"/>
				<stop  offset="0.131" style="stop-color:#EAC979"/>
				<stop  offset="0.2031" style="stop-color:#E5BE7F"/>
				<stop  offset="0.28" style="stop-color:#E3BA81"/>
				<stop  offset="0.67" style="stop-color:#CF938A"/>
				<stop  offset="0.89" style="stop-color:#C1728E"/>
				<stop  offset="1" style="stop-color:#AF3C8E"/>
			</linearGradient>
			<path class="st2" d="M267.4,310.5h-3.2l-5-7c-1.2,1.1-2.5,2.2-3.9,3.1c-1.4,1-2.8,1.8-4.4,2.5c-1.5,0.7-3.1,1.3-4.7,1.7
				s-3.2,0.6-4.9,0.6c-3.6,0-7-0.6-10.1-1.8c-3.2-1.2-5.9-3-8.3-5.3c-2.4-2.3-4.2-5.1-5.6-8.5c-1.4-3.3-2.1-7.1-2.1-11.4
				c0-4,0.7-7.6,2.1-10.9s3.2-6.2,5.6-8.5s5.1-4.2,8.3-5.6c3.2-1.3,6.5-2,10.1-2c1.7,0,3.3,0.2,4.9,0.6s3.2,1,4.7,1.7
				c1.5,0.7,3,1.6,4.4,2.6c1.4,1,2.7,2.1,3.9,3.2l5-6.1h3.2V310.5z M254.3,284.6c0-1.8-0.3-3.5-1-5.2c-0.7-1.7-1.6-3.2-2.8-4.4
				c-1.2-1.3-2.5-2.3-4.1-3.1c-1.6-0.8-3.3-1.2-5-1.2c-1.8,0-3.4,0.3-5,0.9c-1.6,0.6-2.9,1.5-4.1,2.7c-1.1,1.2-2.1,2.6-2.8,4.4
				c-0.7,1.7-1,3.7-1,5.9c0,2.2,0.3,4.2,1,5.9c0.7,1.7,1.6,3.2,2.8,4.4c1.1,1.2,2.5,2.1,4.1,2.7c1.6,0.6,3.3,0.9,5,0.9
				c1.8,0,3.4-0.4,5-1.2c1.6-0.8,2.9-1.8,4.1-3.1c1.2-1.3,2.1-2.8,2.8-4.4C254,288.1,254.3,286.3,254.3,284.6z"/>
			
				<linearGradient id="SVGID_4_" gradientUnits="userSpaceOnUse" x1="115.6097" y1="-3257.0244" x2="396.4064" y2="-3257.0244" gradientTransform="matrix(1 0 0 -1 0 -2972)">
				<stop  offset="0" style="stop-color:#FFF362"/>
				<stop  offset="6.095099e-02" style="stop-color:#F4DC6F"/>
				<stop  offset="0.131" style="stop-color:#EAC979"/>
				<stop  offset="0.2031" style="stop-color:#E5BE7F"/>
				<stop  offset="0.28" style="stop-color:#E3BA81"/>
				<stop  offset="0.67" style="stop-color:#CF938A"/>
				<stop  offset="0.89" style="stop-color:#C1728E"/>
				<stop  offset="1" style="stop-color:#AF3C8E"/>
			</linearGradient>
			<path class="st3" d="M283,310.5h-13v-51h3.2l4.3,6.1c2.1-1.9,4.5-3.4,7.2-4.4c2.7-1,5.4-1.5,8.3-1.5h11.5v13h-11.5
				c-1.4,0-2.6,0.3-3.8,0.8c-1.2,0.5-2.2,1.2-3.2,2.1c-0.9,0.9-1.6,1.9-2.1,3.2c-0.5,1.2-0.8,2.5-0.8,3.8L283,310.5L283,310.5z"/>
			
				<linearGradient id="SVGID_5_" gradientUnits="userSpaceOnUse" x1="115.6097" y1="-3256.5571" x2="396.4064" y2="-3256.5571" gradientTransform="matrix(1 0 0 -1 0 -2972)">
				<stop  offset="0" style="stop-color:#FFF362"/>
				<stop  offset="6.095099e-02" style="stop-color:#F4DC6F"/>
				<stop  offset="0.131" style="stop-color:#EAC979"/>
				<stop  offset="0.2031" style="stop-color:#E5BE7F"/>
				<stop  offset="0.28" style="stop-color:#E3BA81"/>
				<stop  offset="0.67" style="stop-color:#CF938A"/>
				<stop  offset="0.89" style="stop-color:#C1728E"/>
				<stop  offset="1" style="stop-color:#AF3C8E"/>
			</linearGradient>
			<path class="st4" d="M323.4,298.1c0.5,0.2,1,0.3,1.5,0.3c0.5,0.1,1,0.1,1.5,0.1c1.3,0,2.5-0.2,3.7-0.5c1.2-0.3,2.3-0.9,3.3-1.5
				c1-0.6,1.9-1.4,2.8-2.4s1.5-2,2-3.1l9.5,9.6c-1.2,1.7-2.6,3.3-4.2,4.6c-1.6,1.4-3.3,2.5-5.1,3.5c-1.8,1-3.7,1.7-5.8,2.2
				c-2,0.5-4.1,0.7-6.2,0.7c-3.6,0-7-0.7-10.1-2s-5.9-3.2-8.3-5.6c-2.4-2.4-4.2-5.2-5.6-8.5c-1.4-3.3-2.1-6.9-2.1-10.8
				c0-4,0.7-7.7,2.1-11.1s3.2-6.2,5.6-8.5s5.1-4.2,8.3-5.5s6.5-1.9,10.1-1.9c2.1,0,4.2,0.3,6.2,0.8c2,0.5,4,1.2,5.8,2.2
				c1.8,1,3.5,2.1,5.1,3.5c1.6,1.4,3,2.9,4.2,4.6L323.4,298.1z M330.1,271.2c-0.6-0.2-1.2-0.4-1.8-0.4c-0.6-0.1-1.2-0.1-1.8-0.1
				c-1.8,0-3.4,0.3-5,1c-1.6,0.6-2.9,1.6-4.1,2.8c-1.1,1.2-2.1,2.7-2.8,4.4c-0.7,1.7-1,3.6-1,5.7c0,0.5,0,1,0.1,1.6
				c0.1,0.6,0.1,1.2,0.2,1.8c0.1,0.6,0.2,1.2,0.4,1.8c0.2,0.6,0.4,1.1,0.6,1.5L330.1,271.2z"/>
			
				<linearGradient id="SVGID_6_" gradientUnits="userSpaceOnUse" x1="115.6097" y1="-3256.5305" x2="396.4064" y2="-3256.5305" gradientTransform="matrix(1 0 0 -1 0 -2972)">
				<stop  offset="0" style="stop-color:#FFF362"/>
				<stop  offset="6.095099e-02" style="stop-color:#F4DC6F"/>
				<stop  offset="0.131" style="stop-color:#EAC979"/>
				<stop  offset="0.2031" style="stop-color:#E5BE7F"/>
				<stop  offset="0.28" style="stop-color:#E3BA81"/>
				<stop  offset="0.67" style="stop-color:#CF938A"/>
				<stop  offset="0.89" style="stop-color:#C1728E"/>
				<stop  offset="1" style="stop-color:#AF3C8E"/>
			</linearGradient>
			<path class="st5" d="M396.4,310.5h-3.2l-5-7c-1.2,1.1-2.5,2.2-3.9,3.1s-2.8,1.8-4.4,2.5c-1.5,0.7-3.1,1.3-4.7,1.7
				s-3.2,0.6-4.9,0.6c-3.6,0-7-0.6-10.1-1.8c-3.2-1.2-5.9-3-8.3-5.3c-2.4-2.3-4.2-5.1-5.6-8.5c-1.4-3.3-2.1-7.1-2.1-11.4
				c0-4,0.7-7.6,2.1-10.9s3.2-6.2,5.6-8.5s5.1-4.2,8.3-5.6c3.2-1.3,6.5-2,10.1-2c1.7,0,3.3,0.2,4.9,0.6c1.6,0.4,3.2,1,4.7,1.7
				c1.5,0.7,3,1.6,4.4,2.6c1.4,1,2.7,2.1,3.9,3.2l5-6.1h3.2V310.5z M383.3,284.6c0-1.8-0.3-3.5-1-5.2c-0.7-1.7-1.6-3.2-2.8-4.4
				c-1.2-1.3-2.5-2.3-4.1-3.1c-1.6-0.8-3.3-1.2-5-1.2c-1.8,0-3.4,0.3-5,0.9c-1.6,0.6-2.9,1.5-4.1,2.7c-1.1,1.2-2.1,2.6-2.8,4.4
				c-0.7,1.7-1,3.7-1,5.9c0,2.2,0.3,4.2,1,5.9c0.7,1.7,1.6,3.2,2.8,4.4c1.1,1.2,2.5,2.1,4.1,2.7c1.6,0.6,3.3,0.9,5,0.9
				c1.8,0,3.4-0.4,5-1.2c1.6-0.8,2.9-1.8,4.1-3.1c1.2-1.3,2.1-2.8,2.8-4.4C383,288.1,383.3,286.3,383.3,284.6z"/>
		</g>
	</g>
	<path class="st6" d="M202.1,207.7l-1.4-2.7l-6-3.3l-1.3,1.3l3.3,6l2.7,1.4l13.4,13.4l2.7-2.7L202.1,207.7z"/>
	<path class="st7" d="M194.7,203.5l6,3.3l1.4,2.7l12.5,12.5l1-1l-13.4-13.4l-1.4-2.7l-6.1-3.3l-1.3,1.3l0.7,1.2L194.7,203.5z"/>
	<path class="st8" d="M201,220.7c-4.1-0.6-8,2.2-8.7,6.4c-0.2,1.4,0,2.8,0.5,4.1l5-5l3.4,0.7l0.7,3.4l-5,5c3.9,1.6,8.3-0.2,10-4
		c0.5-1.3,0.7-2.7,0.5-4.1c-0.2-1.2,0.2-2.5,1-3.4l7.1-7.1c0.9-0.9,2.2-1.3,3.4-1c4.1,0.6,8-2.2,8.6-6.4c0.2-1.4,0-2.8-0.5-4.1l-5,5
		l-3.4-0.7l-0.7-3.4l5-5c-3.9-1.6-8.3,0.2-10,4c-0.5,1.3-0.7,2.7-0.5,4.1c0.2,1.2-0.2,2.5-1,3.4l-2.2,2.2l0,0l0,0l-2.7,2.7l0,0l0,0
		l-2.2,2.2C203.5,220.5,202.2,220.9,201,220.7L201,220.7z"/>
	<path class="st9" d="M227,205.1l-1.5,1.5c0.9,4.1-1.8,8.1-5.8,8.9c-0.2,0.1-0.4,0.1-0.6,0.1c4.2,0.5,8-2.4,8.5-6.6
		C227.7,207.7,227.5,206.3,227,205.1z"/>
	<path class="st9" d="M216.9,215.6c-1.2-0.2-2.5,0.2-3.4,1l-7.1,7.1c-0.9,0.9-1.3,2.2-1,3.4c0.6,4.1-2.2,8-6.3,8.6
		c-0.1,0-0.2,0-0.3,0c4.1,0.5,8-2.4,8.5-6.5c0.1-0.7,0.1-1.4,0-2.1c-0.2-1.2,0.2-2.5,1-3.4l7.1-7.1c0.5-0.5,1.2-0.9,2-1
		C217.2,215.6,217.1,215.6,216.9,215.6L216.9,215.6z"/>
	<path class="st10" d="M220.4,233.9c1.5,1.5,3.9,1.5,5.4,0c1.5-1.5,1.5-3.9,0-5.4l-6.2-6.2l-5.4,5.4L220.4,233.9z"/>
	<path class="st11" d="M214.2,227.8l5.4-5.4c0.7-0.7,0.7-1.9,0-2.7c-0.7-0.7-1.9-0.7-2.7,0l-5.4,5.4c-0.7,0.7-0.7,1.9,0,2.7
		C212.3,228.5,213.5,228.5,214.2,227.8z"/>
	<path class="st12" d="M191.1,254.4h7.6v-2.9v-11.4v-2.9h-7.6v1.9v13.3V254.4z"/>
	
		<linearGradient id="SVGID_7_" gradientUnits="userSpaceOnUse" x1="183.5165" y1="-3217.8584" x2="191.1014" y2="-3217.8584" gradientTransform="matrix(1 0 0 -1 0 -2972)">
		<stop  offset="0.3208" style="stop-color:#E3BA81"/>
		<stop  offset="0.6181" style="stop-color:#CF938A"/>
		<stop  offset="0.7939" style="stop-color:#C1728E"/>
		<stop  offset="1" style="stop-color:#AF3C8E"/>
	</linearGradient>
	<path class="st13" d="M183.5,239.2h7.6v13.3h-7.6V239.2z"/>
	<path class="st14" d="M237.9,239.6c-0.8-1.4-2.5-1.8-3.9-1l0,0l-10.1,5.8l0,0c-0.3-1-1-1.7-2-1.9l-14.2-3.8c-0.9-0.2-1.9-0.3-2.9,0
		l-6.1,1.5v11.4l2.6,1.3c0.8,0.4,1.7,0.6,2.5,0.6H218c1,0,2-0.3,2.9-0.7l15.9-9.2C238.2,242.7,238.7,241,237.9,239.6L237.9,239.6z"
		/>
	<path class="st15" d="M223.9,244.7c0,0.1,0,0.2-0.1,0.3c-0.4,1.5-2,2.4-3.5,2l0,0l-8.2-2.2l-2-0.5l-0.3,0.9l10.5,2.8
		c1.5,0.4,3.1-0.5,3.5-2C224,245.6,224,245.1,223.9,244.7L223.9,244.7z"/>
</g>
</svg>
